Coordinates
version=1
nRows=41
nColumns=38
inDegrees=no

Units are S.I. units (second, meters, Newtons, ...)
If the header above contains a line with 'inDegrees', this indicates whether rotational values are in degrees (yes) or radians (no).

endheader
time	pelvis_tilt	pelvis_list	pelvis_rotation	pelvis_tx	pelvis_ty	pelvis_tz	hip_flexion_r	hip_adduction_r	hip_rotation_r	knee_angle_r	ankle_angle_r	subtalar_angle_r	mtp_angle_r	hip_flexion_l	hip_adduction_l	hip_rotation_l	knee_angle_l	ankle_angle_l	subtalar_angle_l	mtp_angle_l	lumbar_extension	lumbar_bending	lumbar_rotation	arm_flex_r	arm_add_r	arm_rot_r	elbow_flex_r	pro_sup_r	wrist_flex_r	wrist_dev_r	arm_flex_l	arm_add_l	arm_rot_l	elbow_flex_l	pro_sup_l	wrist_flex_l	wrist_dev_l
0.94	-0.165809	1.44591	-1.26305	0.772209	0.991619	1.02322	0.406254	-0.00818869	-0.0835363	0.559208	0.0738416	0	0	-0.132511	-0.133639	-0.358039	0.629012	-0.0346911	0	0	-0.312608	0.0544312	0.0378815	-0.301299	-0.350908	0.250921	0.679549	1.0188	0	0	0.861402	-0.631243	1.54788	0.655504	1.08294	0	0
0.95	-0.17744	1.44827	-1.24864	0.7722	0.980746	1.02185	0.393303	-0.00600796	-0.0859691	0.472421	0.055398	0	0	-0.141628	-0.13595	-0.355268	0.626738	-0.0320693	0	0	-0.310472	0.0562676	0.0333803	-0.299531	-0.351563	0.252942	0.681278	1.02517	0	0	0.866311	-0.631738	1.53854	0.657569	1.09605	0	0
0.96	-0.190982	1.4483	-1.23255	0.772078	0.969716	1.02058	0.373181	-0.00100914	-0.0809644	0.376412	0.017128	0	0	-0.153736	-0.139722	-0.353515	0.624419	-0.0298243	0	0	-0.310967	0.0592588	0.0305072	-0.299176	-0.352347	0.25266	0.685004	1.03102	0	0	0.871743	-0.630402	1.53097	0.658328	1.10296	0	0
0.97	-0.204457	1.44568	-1.21629	0.771889	0.9585	1.01945	0.344887	0.00587459	-0.0650367	0.271602	-0.0415221	0	0	-0.169288	-0.1449	-0.352652	0.621603	-0.0278595	0	0	-0.314243	0.0635389	0.0289401	-0.300415	-0.353265	0.249936	0.690759	1.03667	0	0	0.879492	-0.626725	1.53095	0.65812	1.09505	0	0
0.98	-0.214154	1.44256	-1.20291	0.771714	0.947088	1.01826	0.316206	0.0111316	-0.0428532	0.176472	-0.0980865	0	0	-0.185229	-0.150264	-0.352272	0.619563	-0.0264404	0	0	-0.317953	0.0677662	0.0268159	-0.302035	-0.354069	0.247264	0.696763	1.04076	0	0	0.887341	-0.62407	1.5355	0.65789	1.09356	0	0
0.99	-0.219236	1.43995	-1.19309	0.771649	0.935552	1.01696	0.295165	0.0133277	-0.0240909	0.111096	-0.133568	0	0	-0.200179	-0.154864	-0.3509	0.618138	-0.0257887	0	0	-0.32115	0.071699	0.0233841	-0.303639	-0.355049	0.245112	0.702686	1.04353	0	0	0.893084	-0.623071	1.53855	0.658172	1.10269	0	0
1	-0.224188	1.43974	-1.18275	0.771694	0.924009	1.0155	0.289821	0.0131851	-0.0177478	0.090539	-0.14085	0	0	-0.211534	-0.158576	-0.348406	0.617939	-0.0262237	0	0	-0.321719	0.07526	0.0187115	-0.304483	-0.356155	0.244258	0.707071	1.04483	0	0	0.896801	-0.622368	1.54047	0.658498	1.1059	0	0
1.01	-0.228112	1.43894	-1.17233	0.771844	0.912449	1.01419	0.286149	0.0132988	-0.0127253	0.0825094	-0.145758	0	0	-0.222763	-0.162756	-0.345026	0.617808	-0.0273979	0	0	-0.323159	0.0796437	0.0131624	-0.304979	-0.357387	0.24319	0.711156	1.04583	0	0	0.899289	-0.621977	1.54164	0.659123	1.1086	0	0
1.02	-0.233287	1.4378	-1.15967	0.772049	0.900833	1.01302	0.284191	0.0142131	-0.0100147	0.0856221	-0.149623	0	0	-0.233584	-0.167657	-0.339449	0.61783	-0.0295433	0	0	-0.324919	0.085043	0.00671411	-0.305164	-0.358654	0.241746	0.714871	1.04649	0	0	0.900158	-0.621863	1.54186	0.659627	1.1105	0	0
1.03	-0.237188	1.43545	-1.14764	0.772232	0.889183	1.01204	0.28721	0.0159593	-0.0175843	0.111815	-0.151803	0	0	-0.245036	-0.172475	-0.329341	0.617395	-0.0343757	0	0	-0.32804	0.0915484	-0.000989701	-0.305622	-0.360076	0.238451	0.719987	1.04829	0	0	0.89872	-0.623395	1.53904	0.661282	1.11265	0	0
1.04	-0.251361	1.43872	-1.12619	0.772233	0.877259	1.01061	0.307084	0.0164145	-0.0354371	0.173916	-0.125068	0	0	-0.24858	-0.176271	-0.317794	0.620494	-0.0392896	0	0	-0.324151	0.0964075	-0.00826913	-0.305247	-0.359648	0.235664	0.720059	1.05219	0	0	0.893642	-0.625328	1.53338	0.663143	1.11477	0	0
1.05	-0.271503	1.44472	-1.09972	0.771994	0.864948	1.00893	0.331299	0.0164358	-0.0524822	0.246643	-0.0856076	0	0	-0.248303	-0.179417	-0.305338	0.625658	-0.0441858	0	0	-0.31614	0.0999285	-0.0153416	-0.304036	-0.358604	0.235832	0.716775	1.05567	0	0	0.886147	-0.628259	1.52793	0.665938	1.11406	0	0
1.06	-0.292701	1.44943	-1.07278	0.77155	0.852357	1.00746	0.349476	0.0172361	-0.0663246	0.308843	-0.0657585	0	0	-0.248765	-0.183179	-0.292384	0.631766	-0.0506339	0	0	-0.309102	0.103666	-0.021534	-0.302477	-0.357595	0.237524	0.712605	1.0578	0	0	0.878019	-0.631824	1.52415	0.670113	1.10865	0	0
1.07	-0.315969	1.45059	-1.04425	0.771007	0.839738	1.00658	0.357566	0.0193033	-0.0774161	0.348125	-0.0714812	0	0	-0.251724	-0.18861	-0.278757	0.638745	-0.0588315	0	0	-0.306078	0.109346	-0.0261385	-0.300091	-0.357017	0.239934	0.707868	1.0587	0	0	0.869702	-0.635192	1.52178	0.674227	1.10671	0	0
1.08	-0.346831	1.44901	-1.00958	0.770406	0.82716	1.00634	0.359759	0.0225427	-0.0876107	0.369754	-0.0845881	0	0	-0.255584	-0.19544	-0.264836	0.647962	-0.0680411	0	0	-0.306154	0.117386	-0.0280208	-0.297135	-0.357178	0.242543	0.702853	1.05868	0	0	0.860144	-0.637685	1.51876	0.677556	1.11077	0	0
1.09	-0.383539	1.44707	-0.971337	0.769661	0.814443	1.00649	0.361573	0.0268449	-0.0978403	0.387927	-0.0976679	0	0	-0.258115	-0.20236	-0.251698	0.66015	-0.0790777	0	0	-0.306445	0.125988	-0.0272591	-0.294221	-0.357779	0.24551	0.697837	1.05797	0	0	0.847256	-0.639852	1.51145	0.680207	1.11906	0	0
1.1	-0.424941	1.44744	-0.930762	0.768733	0.801525	1.0067	0.368591	0.0302826	-0.110429	0.415616	-0.114648	0	0	-0.256321	-0.207508	-0.238388	0.676544	-0.0936625	0	0	-0.303849	0.133534	-0.0250819	-0.292149	-0.358699	0.248775	0.693699	1.0554	0	0	0.829151	-0.642477	1.496	0.683754	1.12774	0	0
1.11	-0.464185	1.44912	-0.893594	0.767747	0.788626	1.00696	0.37816	0.0320137	-0.122784	0.449511	-0.126439	0	0	-0.250517	-0.210151	-0.222471	0.698565	-0.108228	0	0	-0.300535	0.140207	-0.0218958	-0.291525	-0.359892	0.250578	0.691893	1.05112	0	0	0.808709	-0.645652	1.4779	0.689125	1.13392	0	0
1.12	-0.503964	1.45142	-0.857876	0.766649	0.775606	1.00726	0.388818	0.0331345	-0.133334	0.486219	-0.126582	0	0	-0.241403	-0.210958	-0.207216	0.726228	-0.124478	0	0	-0.296722	0.146368	-0.0171245	-0.292073	-0.361376	0.251692	0.691443	1.04518	0	0	0.785488	-0.649667	1.4575	0.696465	1.13909	0	0
1.13	-0.538618	1.45256	-0.828943	0.765404	0.762501	1.00774	0.395884	0.0353123	-0.141049	0.517783	-0.119403	0	0	-0.231321	-0.211169	-0.192777	0.757778	-0.142219	0	0	-0.294486	0.152549	-0.0104449	-0.293601	-0.363047	0.252126	0.692198	1.03941	0	0	0.761271	-0.653627	1.4383	0.704622	1.14299	0	0
1.14	-0.562687	1.45241	-0.811118	0.764049	0.749415	1.00839	0.398186	0.0383665	-0.148299	0.543022	-0.114279	0	0	-0.22001	-0.211001	-0.178707	0.793556	-0.161726	0	0	-0.294385	0.158338	-0.00248595	-0.296226	-0.364267	0.25083	0.694428	1.03457	0	0	0.737769	-0.657473	1.42237	0.713658	1.14459	0	0
1.15	-0.580611	1.45245	-0.799172	0.762589	0.736395	1.00906	0.397595	0.0414516	-0.157521	0.563175	-0.108886	0	0	-0.205334	-0.210524	-0.164281	0.833633	-0.185517	0	0	-0.294466	0.163043	0.00532769	-0.299711	-0.364827	0.248297	0.69791	1.02976	0	0	0.714167	-0.661803	1.40835	0.723831	1.14428	0	0
1.16	-0.594335	1.45271	-0.791073	0.76104	0.723525	1.00972	0.394207	0.0451277	-0.167349	0.576664	-0.102877	0	0	-0.187192	-0.209919	-0.150008	0.877762	-0.212248	0	0	-0.294574	0.166759	0.012466	-0.303439	-0.364969	0.245345	0.702341	1.02559	0	0	0.690644	-0.666895	1.39667	0.734972	1.14234	0	0
1.17	-0.606273	1.45328	-0.784336	0.759457	0.710857	1.01031	0.389228	0.0497209	-0.175598	0.585155	-0.0963344	0	0	-0.165738	-0.208927	-0.135321	0.925568	-0.237856	0	0	-0.294561	0.169845	0.0188151	-0.30731	-0.365037	0.24207	0.707766	1.02244	0	0	0.667223	-0.672162	1.38633	0.746884	1.13588	0	0
1.18	-0.622728	1.45502	-0.772017	0.757977	0.698397	1.01068	0.385677	0.0542582	-0.182797	0.593764	-0.0843056	0	0	-0.139975	-0.207086	-0.118619	0.976779	-0.260455	0	0	-0.292692	0.172375	0.0230972	-0.31091	-0.365213	0.239267	0.713424	1.01901	0	0	0.644246	-0.678059	1.37997	0.760067	1.11876	0	0
1.19	-0.634194	1.45595	-0.763393	0.756726	0.686166	1.01113	0.379997	0.059283	-0.187909	0.600209	-0.0738234	0	0	-0.113442	-0.20527	-0.101094	1.02926	-0.274331	0	0	-0.291948	0.175199	0.0264511	-0.31439	-0.365885	0.236623	0.719542	1.01638	0	0	0.622011	-0.683715	1.375	0.773631	1.09846	0	0
1.2	-0.640357	1.45683	-0.759227	0.755697	0.674128	1.01168	0.372888	0.0639527	-0.189769	0.606217	-0.0627964	0	0	-0.0860759	-0.202987	-0.0842364	1.08151	-0.287188	0	0	-0.291656	0.177544	0.0287687	-0.317066	-0.366861	0.234866	0.724932	1.01435	0	0	0.598279	-0.689354	1.36643	0.787401	1.07948	0	0
1.21	-0.637438	1.45771	-0.763518	0.754864	0.662241	1.01239	0.363796	0.0678518	-0.187516	0.611996	-0.0478217	0	0	-0.0585178	-0.199863	-0.0689322	1.13236	-0.300724	0	0	-0.291926	0.179003	0.0299925	-0.318433	-0.368133	0.234809	0.728925	1.01238	0	0	0.574007	-0.694688	1.35733	0.800725	1.05864	0	0
1.22	-0.621336	1.45799	-0.780755	0.754161	0.65047	1.01336	0.351672	0.0713361	-0.18168	0.616232	-0.0322562	0	0	-0.0322362	-0.196183	-0.056126	1.1806	-0.310165	0	0	-0.293817	0.179709	0.0310315	-0.319163	-0.369435	0.234833	0.732205	1.01011	0	0	0.549053	-0.699376	1.34599	0.81361	1.03704	0	0
1.23	-0.592706	1.45764	-0.810587	0.753509	0.638783	1.01453	0.337177	0.0744209	-0.174194	0.619035	-0.0168282	0	0	-0.00786426	-0.191901	-0.0456986	1.2253	-0.310444	0	0	-0.297211	0.179575	0.0323297	-0.319718	-0.370632	0.234248	0.734968	1.00779	0	0	0.524504	-0.703373	1.33462	0.826089	1.01172	0	0
1.24	-0.554974	1.45665	-0.849819	0.752871	0.627142	1.01588	0.320625	0.0774502	-0.166092	0.619993	-0.00368015	0	0	0.0144138	-0.187292	-0.0383303	1.26606	-0.29829	0	0	-0.301667	0.178872	0.0341178	-0.320236	-0.371617	0.232478	0.73732	1.00517	0	0	0.499791	-0.706458	1.32199	0.837624	0.987914	0	0
1.25	-0.514485	1.45523	-0.89214	0.752251	0.615507	1.01729	0.302691	0.0808121	-0.157421	0.619685	0.00892206	0	0	0.035405	-0.182762	-0.0346748	1.30308	-0.275442	0	0	-0.306231	0.177911	0.0365388	-0.321151	-0.372301	0.229222	0.739298	1.00203	0	0	0.474584	-0.708121	1.30817	0.847037	0.973455	0	0
1.26	-0.472552	1.45342	-0.936396	0.75164	0.603909	1.0188	0.284046	0.0841253	-0.149239	0.61786	0.0204003	0	0	0.0553056	-0.178088	-0.0340064	1.33603	-0.248823	0	0	-0.310863	0.17661	0.0396314	-0.322115	-0.373124	0.226519	0.740469	1.00033	0	0	0.450019	-0.708549	1.29511	0.854679	0.963881	0	0
1.27	-0.431562	1.45169	-0.980814	0.750959	0.592434	1.02037	0.264746	0.0872646	-0.141877	0.612838	0.0300957	0	0	0.0749175	-0.173085	-0.035915	1.36476	-0.223238	0	0	-0.315206	0.174629	0.0436691	-0.32248	-0.374011	0.22448	0.740533	0.999566	0	0	0.426214	-0.707974	1.28282	0.860953	0.95696	0	0
1.28	-0.392313	1.45013	-1.02479	0.750154	0.581107	1.022	0.244377	0.0901831	-0.135064	0.604166	0.0362535	0	0	0.0946123	-0.167873	-0.0393649	1.38875	-0.20509	0	0	-0.319321	0.171991	0.0488933	-0.322261	-0.374656	0.222057	0.739642	0.998202	0	0	0.403529	-0.706236	1.27147	0.865752	0.952476	0	0
1.29	-0.35618	1.44848	-1.06646	0.749353	0.569881	1.02368	0.222882	0.0927845	-0.128718	0.59298	0.0423787	0	0	0.114122	-0.16278	-0.0435443	1.40817	-0.189778	0	0	-0.323069	0.169333	0.0545955	-0.321766	-0.375715	0.220281	0.738365	0.996809	0	0	0.381347	-0.703417	1.26073	0.869068	0.949898	0	0
1.3	-0.324251	1.44776	-1.10466	0.748609	0.558819	1.02528	0.202324	0.0941817	-0.123815	0.582073	0.0470914	0	0	0.134772	-0.157343	-0.047667	1.42295	-0.180346	0	0	-0.325851	0.166347	0.0613575	-0.321524	-0.377168	0.21894	0.73703	0.995635	0	0	0.360254	-0.69936	1.25191	0.870542	0.952928	0	0
1.31	-0.300196	1.44701	-1.13575	0.747805	0.547769	1.02684	0.18064	0.0963252	-0.117733	0.568105	0.0521007	0	0	0.155318	-0.153251	-0.0519127	1.43273	-0.171819	0	0	-0.327979	0.163917	0.0688172	-0.321371	-0.378686	0.217642	0.735521	0.994467	0	0	0.338965	-0.694268	1.24323	0.870406	0.959661	0	0
1.32	-0.283237	1.44588	-1.16043	0.746902	0.536763	1.02836	0.157911	0.0993035	-0.110762	0.551804	0.0569617	0	0	0.174942	-0.150618	-0.0559125	1.43744	-0.163273	0	0	-0.33019	0.162184	0.0770616	-0.321213	-0.380236	0.216438	0.734015	0.993071	0	0	0.318109	-0.688632	1.23435	0.86967	0.967871	0	0
1.33	-0.269587	1.44431	-1.18217	0.746018	0.525801	1.02987	0.133887	0.102483	-0.103878	0.532899	0.0609991	0	0	0.193064	-0.14913	-0.0602076	1.43695	-0.154838	0	0	-0.332833	0.160844	0.0856797	-0.321355	-0.382158	0.215478	0.732993	0.99178	0	0	0.297737	-0.682568	1.22532	0.868574	0.975969	0	0
1.34	-0.256962	1.44171	-1.20311	0.745187	0.514825	1.03145	0.106557	0.10609	-0.0963878	0.507838	0.0633949	0	0	0.208636	-0.148785	-0.0657617	1.43126	-0.146342	0	0	-0.336462	0.159872	0.0943753	-0.321802	-0.384314	0.214412	0.732628	0.990163	0	0	0.277696	-0.676102	1.21573	0.867011	0.983073	0	0
